<svg xmlns="http://www.w3.org/2000/svg" width="96.227" height="67.357" viewBox="0 0 96.227 67.357">
  <path id="Icon_awesome-box-open" data-name="Icon awesome-box-open" d="M64.006,35.93a7.288,7.288,0,0,1-6.224-3.518L48.114,16.385,38.462,32.412a7.312,7.312,0,0,1-6.239,3.533,6.915,6.915,0,0,1-2-.286l-20.6-5.894V56.528a4.8,4.8,0,0,0,3.638,4.661l32.5,8.134a9.773,9.773,0,0,0,4.661,0l32.535-8.134A4.822,4.822,0,0,0,86.6,56.528V29.766l-20.6,5.879A6.915,6.915,0,0,1,64.006,35.93ZM95.969,19.062,88.226,3.606a2.456,2.456,0,0,0-2.511-1.338l-37.6,4.8L61.9,29.932a2.471,2.471,0,0,0,2.781,1.1l29.753-8.495a2.476,2.476,0,0,0,1.534-3.473ZM8,3.606.259,19.062A2.451,2.451,0,0,0,1.777,22.52l29.753,8.495a2.471,2.471,0,0,0,2.781-1.1l13.8-22.853L10.5,2.268A2.457,2.457,0,0,0,8,3.606Z" transform="translate(0.003 -2.247)" fill="#a2bbff"/>
</svg>
