<svg xmlns="http://www.w3.org/2000/svg" width="14.215" height="12.794" viewBox="0 0 14.215 12.794">
  <path id="Icon_material-business" data-name="Icon material-business" d="M10.108,7.343V4.5H3V17.294H17.215V7.343ZM5.843,15.872H4.422V14.451H5.843Zm0-2.843H4.422V11.608H5.843Zm0-2.843H4.422V8.765H5.843Zm0-2.843H4.422V5.922H5.843Zm2.843,8.529H7.265V14.451H8.686Zm0-2.843H7.265V11.608H8.686Zm0-2.843H7.265V8.765H8.686Zm0-2.843H7.265V5.922H8.686Zm7.108,8.529H10.108V14.451h1.422V13.029H10.108V11.608h1.422V10.186H10.108V8.765h5.686Zm-1.422-5.686H12.951v1.422h1.422Zm0,2.843H12.951v1.422h1.422Z" transform="translate(-3 -4.5)" fill="#7096ff"/>
</svg>
