<svg xmlns="http://www.w3.org/2000/svg" width="68.5" height="50.895" viewBox="0 0 68.5 50.895">
  <g id="Icon_material-photo-camera" data-name="Icon material-photo-camera" transform="translate(-3 -3)">
    <path id="Path_5" data-name="Path 5" d="M35.12,22.248c0,5-4.907,9.048-10.96,9.048S13.2,27.245,13.2,22.248,18.107,13.2,24.16,13.2,35.12,17.251,35.12,22.248Z" transform="translate(13.09 9.027)" fill="#6c74eb"/>
    <path id="Path_6" data-name="Path 6" d="M26.975,3,20.707,8.655H9.85C6.082,8.655,3,11.2,3,14.31V48.24C3,51.35,6.082,53.9,9.85,53.9h54.8c3.768,0,6.85-2.545,6.85-5.655V14.31c0-3.11-3.082-5.655-6.85-5.655H53.793L47.525,3ZM37.25,45.413c-9.453,0-17.125-6.334-17.125-14.138S27.8,17.138,37.25,17.138s17.125,6.334,17.125,14.138S46.7,45.413,37.25,45.413Z" transform="translate(0 0)" fill="#6c74eb"/>
  </g>
</svg>
