<svg xmlns="http://www.w3.org/2000/svg" width="27.096" height="23.772" viewBox="0 0 27.096 23.772">
  <path id="Icon_metro-cart" data-name="Icon metro-cart" d="M12.732,25.251a2.463,2.463,0,0,1-2.54,2.377,2.382,2.382,0,1,1,0-4.754,2.463,2.463,0,0,1,2.54,2.377Zm16.935,0a2.546,2.546,0,1,1-2.54-2.377A2.463,2.463,0,0,1,29.667,25.251Zm0-10.3V5.441H9.345A1.642,1.642,0,0,0,7.651,3.856H2.571V5.441H5.958l1.272,10.2a3.093,3.093,0,0,0-1.272,2.475,3.284,3.284,0,0,0,3.387,3.17H29.667V19.7H9.345a1.642,1.642,0,0,1-1.694-1.585c0-.005,0-.011,0-.016L29.667,14.95Z" transform="translate(-2.571 -3.856)" fill="#4751df"/>
</svg>
