<svg xmlns="http://www.w3.org/2000/svg" width="40.845" height="40.845" viewBox="0 0 40.845 40.845">
  <g id="Icon_ionic-ios-close-circle-outline" data-name="Icon ionic-ios-close-circle-outline" transform="translate(-3.375 -3.375)">
    <path id="Path_7" data-name="Path 7" d="M27.629,25.412l-5.174-5.174,5.174-5.174a1.569,1.569,0,1,0-2.219-2.219l-5.174,5.174-5.174-5.174a1.569,1.569,0,1,0-2.219,2.219l5.174,5.174-5.174,5.174a1.517,1.517,0,0,0,0,2.219,1.559,1.559,0,0,0,2.219,0l5.174-5.174,5.174,5.174a1.576,1.576,0,0,0,2.219,0A1.559,1.559,0,0,0,27.629,25.412Z" transform="translate(3.561 3.559)" fill="#343434"/>
    <path id="Path_8" data-name="Path 8" d="M23.8,6.124A17.666,17.666,0,1,1,11.3,11.3,17.556,17.556,0,0,1,23.8,6.124m0-2.749A20.422,20.422,0,1,0,44.22,23.8,20.419,20.419,0,0,0,23.8,3.375Z" fill="#343434"/>
  </g>
</svg>
