<svg xmlns="http://www.w3.org/2000/svg" width="73.339" height="51.337" viewBox="0 0 73.339 51.337">
  <path id="Icon_awesome-money-bill-wave" data-name="Icon awesome-money-bill-wave" d="M71.179,4.824A33.934,33.934,0,0,0,57.84,2.25c-14.114,0-28.227,7.144-42.341,7.144A34.768,34.768,0,0,1,4.882,7.821,3.918,3.918,0,0,0,3.7,7.636,3.646,3.646,0,0,0,0,11.281V47.636a3.644,3.644,0,0,0,2.159,3.376A33.915,33.915,0,0,0,15.5,53.587c14.114,0,28.228-7.145,42.342-7.145a34.768,34.768,0,0,1,10.617,1.572,3.918,3.918,0,0,0,1.186.186,3.646,3.646,0,0,0,3.7-3.645V8.2A3.649,3.649,0,0,0,71.179,4.824ZM5.5,13.734a39.878,39.878,0,0,0,7.187,1.023A7.342,7.342,0,0,1,5.5,20.664Zm0,32.658V40.918a7.331,7.331,0,0,1,7.3,7.036A27.683,27.683,0,0,1,5.5,46.393Zm31.169-7.474c-5.064,0-9.167-4.926-9.167-11s4.1-11,9.167-11,9.167,4.925,9.167,11S41.731,38.919,36.669,38.919ZM67.838,42.1a39.4,39.4,0,0,0-6.225-.967,7.318,7.318,0,0,1,6.225-5.647Zm0-27.056a7.319,7.319,0,0,1-6.4-7.053,27.546,27.546,0,0,1,6.4,1.451Z" transform="translate(0 -2.25)" fill="#6c74eb"/>
</svg>
