<svg xmlns="http://www.w3.org/2000/svg" width="300" height="270" viewBox="0 0 300 270">
  <g id="Group_711" data-name="Group 711" transform="translate(-326 -405)">
    <g id="Group_706" data-name="Group 706" transform="translate(-539 -1455)">
      <rect id="Rectangle_578" data-name="Rectangle 578" width="300" height="270" transform="translate(865 1860)" fill="#4751df"/>
      <g id="buy-2025564" transform="translate(921 1877.595)">
        <path id="Path_703" data-name="Path 703" d="M217.8,79.106a6.067,6.067,0,0,1,1.807-.133q63.277,0,126.553,0a4,4,0,0,1,3.758,3.192c.168.645-.05,1.316.111,1.961a11.953,11.953,0,0,0,.233,1.464q13.208,28.974,26.418,57.948c.255.623-.221,1.253-.508,1.786a25.314,25.314,0,0,1-3.354,3.884,16.943,16.943,0,0,1-4.593,3.443,15.221,15.221,0,0,1-16.837-2.293c-.042-.049-.124-.144-.164-.193q-5.6-31.605-11.2-63.209-11.861-.008-23.722,0,3.16,31.605,6.328,63.21a29.005,29.005,0,0,1-5.754,3.866,15.222,15.222,0,0,1-12.888-.283,33.578,33.578,0,0,1-5.079-3.518l.115-.094q-1.674-28.984-3.408-57.97c-.107-1.737-.2-3.476-.316-5.214q-12.971,0-25.941,0-.8,31.59-1.6,63.181l.126.094c-1.595,1.1-3.146,2.273-4.77,3.335a15.249,15.249,0,0,1-15.848.015c-1.6-1.045-3.135-2.194-4.7-3.292l.186-.133q2.431-31.6,4.82-63.2-11.719,0-23.439,0-4.809,31.605-9.62,63.209a15.14,15.14,0,0,1-20.405.655,35.682,35.682,0,0,1-5.057-5.23,3.036,3.036,0,0,1-.756-1.936q13.252-29.076,26.509-58.15a14.138,14.138,0,0,0,.183-1.418,4.789,4.789,0,0,1,.1-2.422A4.025,4.025,0,0,1,217.8,79.106Z" transform="translate(-188.283 -78.968)" fill="#7096ff" stroke="#a2bbff" stroke-width="0.3"/>
        <path id="Path_704" data-name="Path 704" d="M377.33,199.709q4.811-31.605,9.62-63.209,11.72,0,23.439,0-2.425,31.6-4.82,63.2l-.186.133a41.723,41.723,0,0,1-5.916,3.468,20.638,20.638,0,0,1-13.924.833,20.421,20.421,0,0,1-5.7-2.692c-.72-.491-1.434-.994-2.151-1.488C377.571,199.87,377.451,199.788,377.33,199.709Z" transform="translate(-351.095 -128.515)" fill="#fff" stroke="#fff" stroke-width="0.3"/>
        <path id="Path_705" data-name="Path 705" d="M762.619,136.491q12.97,0,25.941,0c.119,1.737.21,3.476.316,5.214q1.7,28.986,3.408,57.97l-.115.094c-1.41.91-2.842,1.786-4.26,2.682a20.557,20.557,0,0,1-19.617,1.352c-1.7-.8-3.275-1.815-4.906-2.732-.745-.439-1.5-.859-2.24-1.3l-.126-.094Q761.832,168.082,762.619,136.491Z" transform="translate(-681.539 -128.507)" fill="#fff" stroke="#fff" stroke-width="0.3"/>
        <path id="Path_706" data-name="Path 706" d="M1110.8,136.5q11.861,0,23.722,0,5.6,31.6,11.2,63.209c-.416.264-.83.531-1.235.808l-.148.1a27.015,27.015,0,0,1-5.3,2.985,21.8,21.8,0,0,1-2.4.79,20.638,20.638,0,0,1-14.885-1.743c-1.61-.866-3.079-1.964-4.621-2.941Q1113.964,168.106,1110.8,136.5Z" transform="translate(-982.779 -128.515)" fill="#fff" stroke="#fff" stroke-width="0.3"/>
        <path id="Path_707" data-name="Path 707" d="M907.033,592c1.542.977,3.011,2.075,4.621,2.941a20.637,20.637,0,0,0,14.885,1.743c.007.892,0,1.785,0,2.677a19.884,19.884,0,0,1-15.21-2,4.86,4.86,0,0,0-2.139-.2,10.7,10.7,0,0,0-2.244.089,41.14,41.14,0,0,1-4.739,3.585,14,14,0,0,1-7.169,1.879,14.241,14.241,0,0,1-8.288-2.7c-1.053-.79-2.054-1.646-3.071-2.481a1.191,1.191,0,0,0-.846-.368c-1.024-.008-2.047,0-3.07,0a1.491,1.491,0,0,0-.912.312,19.785,19.785,0,0,1-6.534,2.77,22.6,22.6,0,0,1-5.468.48v-.069c0-.9-.012-1.808.007-2.712a20.545,20.545,0,0,0,12.19-3.19c1.418-.9,2.85-1.772,4.26-2.683a33.573,33.573,0,0,0,5.079,3.518,15.222,15.222,0,0,0,12.888.283A29.012,29.012,0,0,0,907.033,592Z" transform="translate(-772.684 -520.805)" fill="#2d37c5"/>
        <path id="Path_708" data-name="Path 708" d="M450.417,595.986a41.718,41.718,0,0,0,5.916-3.468c1.567,1.1,3.1,2.247,4.7,3.292a15.249,15.249,0,0,0,15.848-.015c1.624-1.062,3.175-2.23,4.77-3.335.741.444,1.495.865,2.24,1.3,1.631.917,3.208,1.937,4.906,2.732a20.516,20.516,0,0,0,7.427,1.839c-.019.9-.007,1.808-.007,2.712a19.626,19.626,0,0,1-9.831-3.235,2.516,2.516,0,0,0-1.532-.255c-.927.015-1.855-.022-2.781,0-.508-.01-.851.423-1.235.687-1.349,1-2.645,2.079-4.031,3.031a14.464,14.464,0,0,1-8.332,2.354,14.291,14.291,0,0,1-7.689-2.57c-1.167-.81-2.259-1.721-3.4-2.56a7.226,7.226,0,0,0-1.275-.916c-.777-.083-1.56,0-2.338-.029a3.223,3.223,0,0,0-1.7.222,19.788,19.788,0,0,1-15.582,1.7c0-.885,0-1.772,0-2.657a20.638,20.638,0,0,0,13.925-.833Z" transform="translate(-402.046 -521.201)" fill="#2d37c5"/>
        <path id="Path_709" data-name="Path 709" d="M379.806,593.75c.717.494,1.431,1,2.151,1.488a20.423,20.423,0,0,0,5.7,2.692c0,.885,0,1.772,0,2.658q0,56.618,0,113.234a1.252,1.252,0,0,0,1.306,1.323q29.207,0,58.411,0c-.007,2.4-.026,4.8.007,7.193a11.2,11.2,0,0,0-11,7.7,11.207,11.207,0,0,0,11,14.7c-.014,2-.025,4,0,6H393.824a26.969,26.969,0,0,1-4.156-.148,11.855,11.855,0,0,1-9.853-11.224q0-71.339,0-142.673c-.035-.978-.039-1.958-.007-2.938Z" transform="translate(-353.209 -522.312)" fill="#1b2326" stroke="#1b2326" stroke-width="0.3"/>
        <path id="Path_710" data-name="Path 710" d="M1304.733,597.921l.149-.1q0,24.3,0,48.6c.011,13.555-.021,27.112.017,40.668-.706-.945-1.374-1.919-2.1-2.848a6.766,6.766,0,0,0-5.755-2.387q-.006-38.739,0-77.477a19.486,19.486,0,0,0,3.707-1.438,11.93,11.93,0,0,1,1.563-.763c.816-.081,1.639.025,2.459-.043C1304.779,600.726,1304.79,599.323,1304.733,597.921Z" transform="translate(-1143.17 -525.817)" fill="#32393c" stroke="#32393c" stroke-width="0.3"/>
        <path id="Path_711" data-name="Path 711" d="M1299.327,601.535a27.028,27.028,0,0,0,5.3-2.985c.057,1.4.046,2.8.032,4.208-.82.068-1.643-.037-2.459.043a11.969,11.969,0,0,0-1.563.763,19.48,19.48,0,0,1-3.707,1.438c0-.892,0-1.785,0-2.677A21.818,21.818,0,0,0,1299.327,601.535Z" transform="translate(-1143.079 -526.446)" fill="#2f3436" stroke="#2f3436" stroke-width="0.3"/>
        <path id="Path_712" data-name="Path 712" d="M452.064,629.346a3.223,3.223,0,0,1,1.7-.222c.779.029,1.561-.054,2.338.029a7.228,7.228,0,0,1,1.275.916c1.145.84,2.237,1.75,3.4,2.56a14.293,14.293,0,0,0,7.689,2.57,14.464,14.464,0,0,0,8.332-2.354c1.386-.952,2.682-2.026,4.031-3.031.384-.264.727-.7,1.235-.687.926-.026,1.854.011,2.781,0a2.516,2.516,0,0,1,1.532.255,19.625,19.625,0,0,0,9.831,3.235v.069c-.011,4.888-.025,9.777,0,14.664-.9,0-1.8,0-2.7,0,.88,4.077,1.785,8.149,2.676,12.225.032,9.543.011,19.088.012,28.632a23.138,23.138,0,0,1-.079,3.024,3.887,3.887,0,0,1-1.911-3.282c-.146-2.916-.085-5.837-.1-8.754q0-3.4,0-6.8H489.5q-.006,6.245,0,12.49a29.536,29.536,0,0,0,.3,4.888,6.368,6.368,0,0,0,1.221,2.961,7.466,7.466,0,0,0,5.216,2.839c-.076,3.514-.006,7.03-.035,10.544a9.167,9.167,0,0,0,.1,1.457c-.734,3.45-1.507,6.892-2.256,10.339.722,0,1.443,0,2.166,0q-.019,13.845-.006,27.688-29.2,0-58.411,0a1.251,1.251,0,0,1-1.306-1.323q0-56.616,0-113.234a19.788,19.788,0,0,0,15.582-1.7m-.749,32.824c3.224,2.342,6.479,4.643,9.718,6.964a7.94,7.94,0,0,0,1.175.777q-3.47-5.708-6.965-11.4-1.963,1.83-3.929,3.658M466.494,672.4q0,11.449,0,22.9,5.077,0,10.157,0a30.912,30.912,0,0,0,3.876-.233,5.907,5.907,0,0,0,3.82-2.347,6.454,6.454,0,0,0,.511-6.993,5.983,5.983,0,0,0-3.485-2.523,5.44,5.44,0,0,0,3.164-5.112,5.732,5.732,0,0,0-5.079-5.515,47.608,47.608,0,0,0-5.853-.173q-3.555,0-7.111,0M451.315,703.63c1.295,1.238,2.617,2.448,3.929,3.669q3.508-5.726,7-11.458c-3.668,2.562-7.288,5.194-10.933,7.789Z" transform="translate(-402.037 -552.769)" fill="#a2bbff" stroke="#2178a3" stroke-width="0.3"/>
        <path id="Path_713" data-name="Path 713" d="M878.323,629.386a1.491,1.491,0,0,1,.912-.312c1.023.006,2.046,0,3.07,0a1.191,1.191,0,0,1,.846.368c1.017.836,2.018,1.692,3.071,2.481a14.241,14.241,0,0,0,8.288,2.7,14,14,0,0,0,7.169-1.879,41.163,41.163,0,0,0,4.739-3.585,10.694,10.694,0,0,1,2.244-.089,4.862,4.862,0,0,1,2.139.2,19.884,19.884,0,0,0,15.21,2q0,38.739,0,77.477a7.407,7.407,0,0,0-5.454,3.378,6.8,6.8,0,0,0,.168,7.405c1.76,2.419,3.533,4.829,5.3,7.247-.01.482-.024.964-.017,1.449-2.35-3.19-4.671-6.4-7.028-9.586a6.785,6.785,0,0,0-7.737-2.1,7.417,7.417,0,0,0-4.1,3.954,6.831,6.831,0,0,0,.311,5.788,14.363,14.363,0,0,0,1.07,1.563q3.156,4.315,6.313,8.63c-.239.167-.476.336-.712.505q-13.755-18.8-27.506-37.6a17,17,0,0,0-2.23-2.752,6.821,6.821,0,0,0-7.522-.853,7.791,7.791,0,0,0-2.795,2.458,6.8,6.8,0,0,0-.122,7.319c.513.77,1.084,1.5,1.624,2.251q13.8,18.87,27.608,37.741-18.428-.008-36.86,0,0-13.843.005-27.688,1.6,0,3.2,0c-.9-4.065-1.775-8.136-2.685-12.2-.15.617-.279,1.242-.427,1.861a9.153,9.153,0,0,1-.1-1.457c.029-3.514-.042-7.03.035-10.544a22.035,22.035,0,0,0,4.577.054,7.486,7.486,0,0,0,5.666-3.135c1.031-1.593,1.117-3.55,1.209-5.387.125-4.9.033-9.806.061-14.71-1.551,0-3.1,0-4.652,0q.008,6.105,0,12.209a35.01,35.01,0,0,1-.2,4.3,3.314,3.314,0,0,1-2.684,2.756,6.432,6.432,0,0,1-4.1-.432,23.156,23.156,0,0,0,.079-3.024c0-9.544.019-19.088-.013-28.632.923-4.07,1.8-8.152,2.692-12.226-.89,0-1.779,0-2.667,0-.025-4.888-.011-9.777,0-14.664a22.594,22.594,0,0,0,5.468-.48,19.78,19.78,0,0,0,6.534-2.77M907.331,663.8c-.873,2.354-1.837,4.679-2.655,7.051q4.656-4.779,9.269-9.6c-1.5-.963-3.016-1.905-4.512-2.877-.751,1.789-1.392,3.625-2.1,5.43m-27.054,8.546q4.121,6.532,8.249,13.061a.615.615,0,0,1,.119.4q0,4.719,0,9.438,2.323,0,4.646,0,0-4.648,0-9.3c-.046-.375.241-.655.412-.955q4-6.32,8-12.646h-5.371c-1.737,3.01-3.489,6.01-5.219,9.024-1.8-3-3.579-6.017-5.371-9.026-1.821,0-3.641,0-5.462,0m20.951,25.044c2.86,3.43,5.709,6.871,8.594,10.282,1.1-1.413,2.241-2.795,3.339-4.21C909.175,701.457,905.226,699.375,901.228,697.395Z" transform="translate(-772.149 -552.721)" fill="#7096ff"/>
        <path id="Path_714" data-name="Path 714" d="M847.43,760.5c.9-.005,1.8,0,2.7,0s1.778,0,2.667,0c-.9,4.074-1.769,8.156-2.692,12.226C849.215,768.649,848.31,764.578,847.43,760.5Z" transform="translate(-755.958 -665.919)" fill="#ff562a" stroke="#ffd0c4" stroke-width="0.3"/>
        <path id="Path_715" data-name="Path 715" d="M543.38,844.608q1.963-1.832,3.929-3.658,3.485,5.7,6.965,11.4a7.953,7.953,0,0,1-1.175-.777C549.859,849.252,546.6,846.951,543.38,844.608Z" transform="translate(-494.102 -735.207)" fill="#ff562a" stroke="#ffd0c4" stroke-width="0.3"/>
        <path id="Path_716" data-name="Path 716" d="M1145.925,845.73c.71-1.805,1.351-3.641,2.1-5.43,1.5.971,3.01,1.914,4.511,2.877q-4.625,4.811-9.269,9.6C1144.087,850.41,1145.052,848.084,1145.925,845.73Z" transform="translate(-1010.743 -734.647)" fill="#ff562a" stroke="#ffd0c4" stroke-width="0.3"/>
        <path id="Path_717" data-name="Path 717" d="M652.747,940.972q3.555,0,7.111,0a47.607,47.607,0,0,1,5.853.173,5.732,5.732,0,0,1,5.079,5.515,5.441,5.441,0,0,1-3.164,5.112,5.983,5.983,0,0,1,3.485,2.523,6.454,6.454,0,0,1-.511,6.993,5.907,5.907,0,0,1-3.82,2.347,30.877,30.877,0,0,1-3.876.233q-5.079,0-10.157,0,0-11.449,0-22.9m4.648,3.887q0,2.635,0,5.271c1.747.029,3.492-.049,5.237-.035a4.465,4.465,0,0,0,2.667-.627,2.58,2.58,0,0,0-.107-4.121,5.468,5.468,0,0,0-2.7-.455c-1.7.026-3.4-.06-5.1-.032m0,9.159v5.966c2.12.01,4.241,0,6.361-.054a4.193,4.193,0,0,0,2.166-.531,2.9,2.9,0,0,0,.187-4.545,5.207,5.207,0,0,0-3.06-.779C661.165,954.021,659.281,954.005,657.395,954.018Z" transform="translate(-588.29 -821.344)" fill="#fff" stroke="#fff" stroke-width="0.3"/>
        <path id="Path_718" data-name="Path 718" d="M818.484,941H823.1q0,3.4,0,6.8c.014,2.917-.047,5.838.1,8.754a3.887,3.887,0,0,0,1.911,3.282,6.431,6.431,0,0,0,4.1.432,3.314,3.314,0,0,0,2.684-2.756,34.985,34.985,0,0,0,.2-4.3q0-6.105,0-12.209c1.55-.006,3.1,0,4.652,0-.028,4.9.064,9.809-.061,14.71-.092,1.837-.178,3.794-1.209,5.387a7.486,7.486,0,0,1-5.666,3.135,22.051,22.051,0,0,1-4.577-.054A7.467,7.467,0,0,1,820,961.334a6.369,6.369,0,0,1-1.221-2.961,29.528,29.528,0,0,1-.3-4.888Q818.484,947.241,818.484,941Z" transform="translate(-731.025 -821.368)" fill="#fff" stroke="#fff" stroke-width="0.3"/>
        <path id="Path_719" data-name="Path 719" d="M967.45,940.993c1.821,0,3.641,0,5.462,0,1.792,3.009,3.567,6.027,5.371,9.026,1.73-3.014,3.482-6.014,5.219-9.024h5.371q-4,6.322-8,12.646c-.171.3-.458.58-.412.955q.006,4.648,0,9.3-2.323,0-4.646,0,0-4.719,0-9.438a.615.615,0,0,0-.119-.4Q971.567,947.528,967.45,940.993Z" transform="translate(-859.322 -821.364)" fill="#fff" stroke="#fff" stroke-width="0.3"/>
        <path id="Path_720" data-name="Path 720" d="M686.241,968.975c1.7-.028,3.4.058,5.1.032a5.468,5.468,0,0,1,2.7.455,2.58,2.58,0,0,1,.107,4.122,4.465,4.465,0,0,1-2.667.627c-1.746-.014-3.49.064-5.237.035Q686.244,971.611,686.241,968.975Z" transform="translate(-617.137 -845.461)" fill="#a2bbff"/>
        <path id="Path_721" data-name="Path 721" d="M686.25,1034.975c1.886-.013,3.771,0,5.655.057a5.209,5.209,0,0,1,3.06.778,2.9,2.9,0,0,1-.187,4.545,4.194,4.194,0,0,1-2.166.532c-2.12.05-4.241.064-6.361.054Z" transform="translate(-617.145 -902.302)" fill="#a2bbff"/>
        <path id="Path_722" data-name="Path 722" d="M918.452,1105.2a6.821,6.821,0,0,1,7.522.854,17.011,17.011,0,0,1,2.23,2.752q13.753,18.8,27.506,37.6.354-.255.712-.505-3.158-4.315-6.313-8.63a14.329,14.329,0,0,1-1.07-1.563,6.831,6.831,0,0,1-.311-5.788,7.416,7.416,0,0,1,4.1-3.954,6.785,6.785,0,0,1,7.737,2.1c2.356,3.185,4.678,6.4,7.027,9.587l.033.056c.233-.178.462-.364.7-.544q-.36-.481-.712-.96c-1.762-2.417-3.536-4.828-5.3-7.247a6.8,6.8,0,0,1-.168-7.405,7.407,7.407,0,0,1,5.454-3.378,6.766,6.766,0,0,1,5.755,2.387c.73.928,1.4,1.9,2.1,2.848q2.04,2.787,4.08,5.577.348-.26.7-.519c-1-1.385-2.016-2.76-3.024-4.138a6.99,6.99,0,0,1,8.9-10.278,6.674,6.674,0,0,1,2.2,1.926q4.411,6.024,8.82,12.051c-.835.512-1.592,1.138-2.39,1.706q-19,13.886-37.987,27.782c-2.187,1.629-4.43,3.186-6.579,4.863q-2.706-3.705-5.416-7.4-13.8-18.872-27.608-37.741c-.54-.752-1.11-1.481-1.624-2.251a6.8,6.8,0,0,1,.122-7.319,7.794,7.794,0,0,1,2.795-2.458Z" transform="translate(-813.742 -962.135)" fill="#f9b23e" stroke="#f9b23e" stroke-width="0.3"/>
        <path id="Path_723" data-name="Path 723" d="M543.38,1117.759c3.644-2.595,7.265-5.228,10.933-7.789q-3.489,5.737-7,11.459C546,1120.207,544.675,1119,543.38,1117.759Z" transform="translate(-494.102 -966.894)" fill="#ff562a" stroke="#ffd0c4" stroke-width="0.3"/>
        <path id="Path_724" data-name="Path 724" d="M1118.4,1121.5c4,1.98,7.948,4.062,11.933,6.071-1.1,1.416-2.239,2.8-3.339,4.211C1124.109,1128.371,1121.26,1124.931,1118.4,1121.5Z" transform="translate(-989.324 -976.824)" fill="#ff562a" stroke="#ffd0c4" stroke-width="0.3"/>
        <path id="Path_725" data-name="Path 725" d="M853.517,1182.951c.148-.619.277-1.243.427-1.861.91,4.063,1.783,8.135,2.685,12.2q-1.6,0-3.2,0c-.723,0-1.445,0-2.166,0C852.01,1189.843,852.782,1186.4,853.517,1182.951Z" transform="translate(-759.256 -1028.144)" fill="#ff562a" stroke="#ffd0c4" stroke-width="0.3"/>
        <path id="Path_726" data-name="Path 726" d="M1216.026,1276.016c.8-.568,1.554-1.194,2.39-1.706q3.891,5.319,7.783,10.637c.568.812,1.208,1.578,1.729,2.42q4,15.425,7.961,30.861-14.444,10.572-28.9,21.135c-4.251-2.356-8.511-4.7-12.758-7.061-.26-.147-.518-.285-.777-.418a4.37,4.37,0,0,1-2.762.438,56.477,56.477,0,0,1-8.078-1.8c-1.113-.289-2.228-.57-3.339-.86-.9-4.453-1.821-8.9-2.721-13.351a4.341,4.341,0,0,0-.261-1.066c-1.639-2.176-3.228-4.39-4.838-6.586,2.15-1.676,4.392-3.233,6.579-4.863Q1197.038,1289.913,1216.026,1276.016Z" transform="translate(-1035.021 -1108.428)" fill="#fac165" stroke="#fac165" stroke-width="0.3"/>
        <path id="Path_727" data-name="Path 727" d="M1296.985,1333.3q.352.479.712.96c-.233.18-.462.366-.7.544l-.033-.056C1296.961,1334.265,1296.975,1333.782,1296.985,1333.3Z" transform="translate(-1143.11 -1159.232)" fill="#32393c" stroke="#32393c" stroke-width="0.3"/>
        <path id="Path_728" data-name="Path 728" d="M866.755,1468.485q18.431,0,36.86,0,2.71,3.7,5.416,7.4c1.61,2.2,3.2,4.41,4.838,6.586a2.429,2.429,0,0,1-.742.733q-3.772-5.219-7.54-10.437a6.635,6.635,0,0,0-2-1.9,6.806,6.806,0,0,0-6.686-.239,7.473,7.473,0,0,0-3.165,3.081,6.787,6.787,0,0,0,.45,6.986q3.774,5.237,7.558,10.466a7.184,7.184,0,0,0,1.779,1.844,7.356,7.356,0,0,0,2.286.909c3.664,1.056,7.356,2,11.044,2.97,1.112.29,2.226.572,3.339.86a56.453,56.453,0,0,0,8.078,1.8,4.371,4.371,0,0,0,2.762-.438c.26.133.518.271.777.418a11.942,11.942,0,0,1-6.625,4.245,12.124,12.124,0,0,1-3.172.3H866.76c-.026-2-.015-4,0-6a11.2,11.2,0,0,0,0-22.4C866.729,1473.281,866.748,1470.883,866.755,1468.485Z" transform="translate(-772.591 -1275.654)" fill="#32393c" stroke="#32393c" stroke-width="0.3"/>
        <path id="Path_729" data-name="Path 729" d="M1059.747,1479.26a6.8,6.8,0,0,1,6.686.239,6.631,6.631,0,0,1,2,1.9q3.765,5.221,7.539,10.437a2.431,2.431,0,0,0,.743-.733,4.34,4.34,0,0,1,.261,1.066c.9,4.45,1.825,8.9,2.721,13.351-3.687-.966-7.38-1.914-11.044-2.97a7.354,7.354,0,0,1-2.286-.909,7.18,7.18,0,0,1-1.779-1.844q-3.774-5.237-7.558-10.466a6.787,6.787,0,0,1-.449-6.986,7.472,7.472,0,0,1,3.165-3.081Z" transform="translate(-935.431 -1284.279)" fill="#f9b23e" stroke="#f9b23e" stroke-width="0.3"/>
        <path id="Path_730" data-name="Path 730" d="M787.953,1522.666a11.2,11.2,0,1,1-3.665,12.784,11.2,11.2,0,0,1,3.665-12.784Z" transform="translate(-700.978 -1320.315)" fill="#ff9d84" stroke="#ff3703" stroke-width="1"/>
        <path id="Path_731" data-name="Path 731" d="M1423.071,1556.392a1.051,1.051,0,0,1,1.507.211c1.792,2.46,3.6,4.91,5.387,7.375a1.045,1.045,0,0,1-.318,1.5l-41.031,30.017a1.05,1.05,0,0,1-1.477-.2q-2.7-3.683-5.388-7.369a1.028,1.028,0,0,1,.19-1.437q2.987-2.188,5.976-4.371,14.459-10.556,28.9-21.135C1418.894,1559.44,1420.988,1557.922,1423.071,1556.392Z" transform="translate(-1215.949 -1351.169)" fill="#1b2326" stroke="#1b2326" stroke-width="0.3"/>
      </g>
    </g>
  </g>
</svg>
