<svg xmlns="http://www.w3.org/2000/svg" width="300" height="267.093" viewBox="0 0 300 267.093">
  <g id="Group_712" data-name="Group 712" transform="translate(-974 -406)">
    <g id="Group_179" data-name="Group 179" transform="translate(974 406)">
      <rect id="Rectangle_96" data-name="Rectangle 96" width="300" height="267.093" fill="#4751df"/>
    </g>
    <g id="Group_184" data-name="Group 184" transform="translate(1022.276 538.92) rotate(-37)">
      <rect id="Rectangle_108" data-name="Rectangle 108" width="83" height="148" fill="#fff"/>
      <g id="Group_181" data-name="Group 181" transform="translate(11.191 13.689)">
        <line id="Line_63" data-name="Line 63" x2="61" fill="none" stroke="#101010" stroke-width="3"/>
        <line id="Line_74" data-name="Line 74" x2="61" transform="translate(0 54)" fill="none" stroke="#707070" stroke-width="1"/>
        <line id="Line_67" data-name="Line 67" x2="61" transform="translate(0 27)" fill="none" stroke="#707070" stroke-width="1"/>
        <line id="Line_70" data-name="Line 70" x2="61" transform="translate(0 81)" fill="none" stroke="#707070" stroke-width="1"/>
        <line id="Line_77" data-name="Line 77" x2="61" transform="translate(0 108)" fill="none" stroke="#707070" stroke-width="1"/>
        <line id="Line_64" data-name="Line 64" x2="61" transform="translate(0 9)" fill="none" stroke="#707070" stroke-width="1"/>
        <line id="Line_73" data-name="Line 73" x2="61" transform="translate(0 63)" fill="none" stroke="#707070" stroke-width="1"/>
        <line id="Line_68" data-name="Line 68" x2="61" transform="translate(0 36)" fill="none" stroke="#707070" stroke-width="1"/>
        <line id="Line_71" data-name="Line 71" x2="61" transform="translate(0 90)" fill="none" stroke="#707070" stroke-width="1"/>
        <line id="Line_75" data-name="Line 75" x2="61" transform="translate(0 117)" fill="none" stroke="#707070" stroke-width="1"/>
        <line id="Line_65" data-name="Line 65" x2="61" transform="translate(0 18)" fill="none" stroke="#707070" stroke-width="1"/>
        <line id="Line_72" data-name="Line 72" x2="61" transform="translate(0 72)" fill="none" stroke="#707070" stroke-width="1"/>
        <line id="Line_66" data-name="Line 66" x2="61" transform="translate(0 45)" fill="none" stroke="#707070" stroke-width="1"/>
        <line id="Line_69" data-name="Line 69" x2="61" transform="translate(0 99)" fill="none" stroke="#707070" stroke-width="1"/>
        <line id="Line_76" data-name="Line 76" x2="61" transform="translate(0 126)" fill="none" stroke="#707070" stroke-width="1"/>
      </g>
    </g>
    <g id="Group_183" data-name="Group 183" transform="translate(1025.092 541.792) rotate(-37)">
      <rect id="Rectangle_109" data-name="Rectangle 109" width="83" height="148" transform="matrix(0.978, 0.208, -0.208, 0.978, 30.771, 0)" fill="#343434"/>
      <g id="Group_182" data-name="Group 182" transform="matrix(0.978, 0.208, -0.208, 0.978, 38.871, 15.717)">
        <line id="Line_63-2" data-name="Line 63" x2="61" transform="translate(0 0)" fill="none" stroke="#fff" stroke-width="3"/>
        <line id="Line_74-2" data-name="Line 74" x2="61" transform="translate(0 54)" fill="none" stroke="#fff" stroke-width="1"/>
        <line id="Line_67-2" data-name="Line 67" x2="61" transform="translate(0 27)" fill="none" stroke="#fff" stroke-width="1"/>
        <line id="Line_70-2" data-name="Line 70" x2="61" transform="translate(0 81)" fill="none" stroke="#fff" stroke-width="1"/>
        <line id="Line_77-2" data-name="Line 77" x2="61" transform="translate(0 108)" fill="none" stroke="#fff" stroke-width="1"/>
        <line id="Line_64-2" data-name="Line 64" x2="61" transform="translate(0 9)" fill="none" stroke="#fff" stroke-width="1"/>
        <line id="Line_73-2" data-name="Line 73" x2="61" transform="translate(0 63)" fill="none" stroke="#fff" stroke-width="1"/>
        <line id="Line_68-2" data-name="Line 68" x2="61" transform="translate(0 36)" fill="none" stroke="#fff" stroke-width="1"/>
        <line id="Line_71-2" data-name="Line 71" x2="61" transform="translate(0 90)" fill="none" stroke="#fff" stroke-width="1"/>
        <line id="Line_75-2" data-name="Line 75" x2="61" transform="translate(0 117)" fill="none" stroke="#fff" stroke-width="1"/>
        <line id="Line_65-2" data-name="Line 65" x2="61" transform="translate(0 18)" fill="none" stroke="#fff" stroke-width="1"/>
        <line id="Line_72-2" data-name="Line 72" x2="61" transform="translate(0 72)" fill="none" stroke="#fff" stroke-width="1"/>
        <line id="Line_66-2" data-name="Line 66" x2="61" transform="translate(0 45)" fill="none" stroke="#fff" stroke-width="1"/>
        <line id="Line_69-2" data-name="Line 69" x2="61" transform="translate(0 99)" fill="none" stroke="#fff" stroke-width="1"/>
        <line id="Line_76-2" data-name="Line 76" x2="61" transform="translate(0 126)" fill="none" stroke="#fff" stroke-width="1"/>
      </g>
    </g>
    <g id="Group_185" data-name="Group 185" transform="translate(1058.243 525.033) rotate(-22)">
      <rect id="Rectangle_109-2" data-name="Rectangle 109" width="83" height="148" transform="matrix(0.978, 0.208, -0.208, 0.978, 30.771, 0)" fill="#ff562a"/>
      <g id="Group_182-2" data-name="Group 182" transform="matrix(0.978, 0.208, -0.208, 0.978, 38.871, 15.717)">
        <line id="Line_63-3" data-name="Line 63" x2="61" transform="translate(0 0)" fill="none" stroke="#fff" stroke-width="3"/>
        <line id="Line_74-3" data-name="Line 74" x2="61" transform="translate(0 54)" fill="none" stroke="#fff" stroke-width="1"/>
        <line id="Line_67-3" data-name="Line 67" x2="61" transform="translate(0 27)" fill="none" stroke="#fff" stroke-width="1"/>
        <line id="Line_70-3" data-name="Line 70" x2="61" transform="translate(0 81)" fill="none" stroke="#fff" stroke-width="1"/>
        <line id="Line_77-3" data-name="Line 77" x2="61" transform="translate(0 108)" fill="none" stroke="#fff" stroke-width="1"/>
        <line id="Line_64-3" data-name="Line 64" x2="61" transform="translate(0 9)" fill="none" stroke="#fff" stroke-width="1"/>
        <line id="Line_73-3" data-name="Line 73" x2="61" transform="translate(0 63)" fill="none" stroke="#fff" stroke-width="1"/>
        <line id="Line_68-3" data-name="Line 68" x2="61" transform="translate(0 36)" fill="none" stroke="#fff" stroke-width="1"/>
        <line id="Line_71-3" data-name="Line 71" x2="61" transform="translate(0 90)" fill="none" stroke="#fff" stroke-width="1"/>
        <line id="Line_75-3" data-name="Line 75" x2="61" transform="translate(0 117)" fill="none" stroke="#fff" stroke-width="1"/>
        <line id="Line_65-3" data-name="Line 65" x2="61" transform="translate(0 18)" fill="none" stroke="#fff" stroke-width="1"/>
        <line id="Line_72-3" data-name="Line 72" x2="61" transform="translate(0 72)" fill="none" stroke="#fff" stroke-width="1"/>
        <line id="Line_66-3" data-name="Line 66" x2="61" transform="translate(0 45)" fill="none" stroke="#fff" stroke-width="1"/>
        <line id="Line_69-3" data-name="Line 69" x2="61" transform="translate(0 99)" fill="none" stroke="#fff" stroke-width="1"/>
        <line id="Line_76-3" data-name="Line 76" x2="61" transform="translate(0 126)" fill="none" stroke="#fff" stroke-width="1"/>
      </g>
    </g>
    <g id="Group_186" data-name="Group 186" transform="translate(1095.38 515.185) rotate(-7)">
      <rect id="Rectangle_109-3" data-name="Rectangle 109" width="83" height="148" transform="matrix(0.978, 0.208, -0.208, 0.978, 30.771, 0)" fill="#343434"/>
      <g id="Group_182-3" data-name="Group 182" transform="matrix(0.978, 0.208, -0.208, 0.978, 38.871, 15.717)">
        <line id="Line_63-4" data-name="Line 63" x2="61" transform="translate(0)" fill="none" stroke="#fff" stroke-width="3"/>
        <line id="Line_74-4" data-name="Line 74" x2="61" transform="translate(0 54)" fill="none" stroke="#fff" stroke-width="1"/>
        <line id="Line_67-4" data-name="Line 67" x2="61" transform="translate(0 27)" fill="none" stroke="#fff" stroke-width="1"/>
        <line id="Line_70-4" data-name="Line 70" x2="61" transform="translate(0 81)" fill="none" stroke="#fff" stroke-width="1"/>
        <line id="Line_77-4" data-name="Line 77" x2="61" transform="translate(0 108)" fill="none" stroke="#fff" stroke-width="1"/>
        <line id="Line_64-4" data-name="Line 64" x2="61" transform="translate(0 9)" fill="none" stroke="#fff" stroke-width="1"/>
        <line id="Line_73-4" data-name="Line 73" x2="61" transform="translate(0 63)" fill="none" stroke="#fff" stroke-width="1"/>
        <line id="Line_68-4" data-name="Line 68" x2="61" transform="translate(0 36)" fill="none" stroke="#fff" stroke-width="1"/>
        <line id="Line_71-4" data-name="Line 71" x2="61" transform="translate(0 90)" fill="none" stroke="#fff" stroke-width="1"/>
        <line id="Line_75-4" data-name="Line 75" x2="61" transform="translate(0 117)" fill="none" stroke="#fff" stroke-width="1"/>
        <line id="Line_65-4" data-name="Line 65" x2="61" transform="translate(0 18)" fill="none" stroke="#fff" stroke-width="1"/>
        <line id="Line_72-4" data-name="Line 72" x2="61" transform="translate(0 72)" fill="none" stroke="#fff" stroke-width="1"/>
        <line id="Line_66-4" data-name="Line 66" x2="61" transform="translate(0 45)" fill="none" stroke="#fff" stroke-width="1"/>
        <line id="Line_69-4" data-name="Line 69" x2="61" transform="translate(0 99)" fill="none" stroke="#fff" stroke-width="1"/>
        <line id="Line_76-4" data-name="Line 76" x2="61" transform="translate(0 126)" fill="none" stroke="#fff" stroke-width="1"/>
      </g>
    </g>
  </g>
</svg>
