<svg xmlns="http://www.w3.org/2000/svg" width="27.624" height="27.624" viewBox="0 0 27.624 27.624">
  <path id="Icon_simple-instagram" data-name="Icon simple-instagram" d="M13.812,0C10.06,0,9.591.017,8.118.083A10.185,10.185,0,0,0,4.765.725,6.764,6.764,0,0,0,2.318,2.318,6.739,6.739,0,0,0,.725,4.765,10.155,10.155,0,0,0,.083,8.118C.014,9.591,0,10.06,0,13.812s.017,4.221.083,5.694a10.191,10.191,0,0,0,.642,3.353,6.774,6.774,0,0,0,1.593,2.447A6.754,6.754,0,0,0,4.765,26.9a10.2,10.2,0,0,0,3.353.642c1.473.069,1.942.083,5.694.083s4.221-.017,5.694-.083a10.221,10.221,0,0,0,3.353-.642,7.059,7.059,0,0,0,4.04-4.04,10.191,10.191,0,0,0,.642-3.353c.069-1.473.083-1.942.083-5.694s-.017-4.221-.083-5.694A10.215,10.215,0,0,0,26.9,4.765a6.779,6.779,0,0,0-1.593-2.447A6.73,6.73,0,0,0,22.859.725,10.161,10.161,0,0,0,19.506.083C18.033.014,17.565,0,13.812,0Zm0,2.486c3.687,0,4.126.018,5.582.082a7.61,7.61,0,0,1,2.563.478A4.545,4.545,0,0,1,24.58,5.666a7.626,7.626,0,0,1,.475,2.563c.066,1.457.081,1.895.081,5.582s-.017,4.126-.085,5.582a7.773,7.773,0,0,1-.485,2.563,4.386,4.386,0,0,1-1.035,1.591,4.309,4.309,0,0,1-1.588,1.031,7.682,7.682,0,0,1-2.573.475c-1.466.066-1.9.081-5.593.081s-4.128-.017-5.593-.085a7.832,7.832,0,0,1-2.574-.485,4.277,4.277,0,0,1-1.587-1.035,4.194,4.194,0,0,1-1.036-1.588A7.839,7.839,0,0,1,2.5,19.37c-.052-1.45-.07-1.9-.07-5.576s.018-4.128.07-5.6a7.83,7.83,0,0,1,.483-2.571,4.094,4.094,0,0,1,1.036-1.59A4.085,4.085,0,0,1,5.611,3.005a7.645,7.645,0,0,1,2.556-.485c1.468-.052,1.9-.069,5.593-.069l.052.035Zm0,4.233A7.093,7.093,0,1,0,20.9,13.812,7.092,7.092,0,0,0,13.812,6.72Zm0,11.7a4.6,4.6,0,1,1,4.6-4.6A4.6,4.6,0,0,1,13.812,18.416ZM22.843,6.44a1.657,1.657,0,1,1-1.657-1.656A1.659,1.659,0,0,1,22.843,6.44Z" fill="#fff"/>
</svg>
