<svg xmlns="http://www.w3.org/2000/svg" width="14.958" height="10.097" viewBox="0 0 14.958 10.097">
  <path id="Icon_zocial-email" data-name="Icon zocial-email" d="M.072,13.271V4.962q0-.014.043-.274l4.89,4.183L.13,13.559a1.222,1.222,0,0,1-.058-.288ZM.721,4.111a.622.622,0,0,1,.245-.043H14.135a.817.817,0,0,1,.26.043l-4.9,4.2-.649.519L7.558,9.881,6.274,8.828l-.649-.519Zm.014,10.01L5.654,9.4l1.9,1.543L9.462,9.4l4.919,4.717a.693.693,0,0,1-.245.043H.966a.653.653,0,0,1-.231-.043Zm9.376-5.25,4.875-4.183a.861.861,0,0,1,.043.274v8.308a1.106,1.106,0,0,1-.043.288Z" transform="translate(-0.072 -4.068)" fill="#7096ff"/>
</svg>
