<svg xmlns="http://www.w3.org/2000/svg" width="66.842" height="66.845" viewBox="0 0 66.842 66.845">
  <path id="Icon_awesome-tools" data-name="Icon awesome-tools" d="M65.419,51.656,50.132,36.37a9.693,9.693,0,0,0-11.148-1.815L25.067,20.639V12.532L8.358,0,0,8.355l12.532,16.71h8.107L34.558,38.98a9.714,9.714,0,0,0,1.815,11.148L51.659,65.416a4.854,4.854,0,0,0,6.88,0l6.88-6.88a4.877,4.877,0,0,0,0-6.88ZM43.3,29.372a13.735,13.735,0,0,1,9.778,4.047l2.533,2.533A18.478,18.478,0,0,0,61.333,32.1,18.774,18.774,0,0,0,66.28,14.255a1.563,1.563,0,0,0-2.624-.718L53.944,23.25,45.08,21.775,43.6,12.911,53.317,3.2A1.576,1.576,0,0,0,52.573.561,18.805,18.805,0,0,0,34.741,5.509a18.5,18.5,0,0,0-5.378,13.524L40.08,29.751A14.221,14.221,0,0,1,43.3,29.372Zm-13.564,10.7-7.4-7.4L2.444,52.583A8.354,8.354,0,0,0,14.258,64.4L30.394,48.262a14.019,14.019,0,0,1-.653-8.185ZM8.358,61.617a3.133,3.133,0,1,1,3.133-3.133A3.142,3.142,0,0,1,8.358,61.617Z" transform="translate(0.004)" fill="#a2bbff"/>
</svg>
