<svg xmlns="http://www.w3.org/2000/svg" width="33.852" height="27.514" viewBox="0 0 33.852 27.514">
  <path id="Icon_simple-twitter" data-name="Icon simple-twitter" d="M33.786,6.645A14.105,14.105,0,0,1,29.8,7.739,6.993,6.993,0,0,0,32.852,3.9a14.334,14.334,0,0,1-4.41,1.67,6.937,6.937,0,0,0-12,4.736,7.1,7.1,0,0,0,.179,1.585,19.654,19.654,0,0,1-14.3-7.23A6.8,6.8,0,0,0,1.374,8.15,6.941,6.941,0,0,0,4.46,13.928a6.917,6.917,0,0,1-3.142-.869v.086a6.944,6.944,0,0,0,5.566,6.808,7,7,0,0,1-3.12.12,6.963,6.963,0,0,0,6.494,4.82A13.918,13.918,0,0,1,1.65,27.861,14.729,14.729,0,0,1,0,27.767a19.74,19.74,0,0,0,10.659,3.116c12.77,0,19.745-10.573,19.745-19.727,0-.295,0-.592-.021-.889a14.014,14.014,0,0,0,3.47-3.594l-.066-.028Z" transform="translate(0 -3.369)" fill="#fff"/>
</svg>
