<svg xmlns="http://www.w3.org/2000/svg" width="52.112" height="52.115" viewBox="0 0 52.112 52.115">
  <path id="Icon_material-update" data-name="Icon material-update" d="M56.614,25.115H36.984l7.933-8.165a20.38,20.38,0,0,0-28.606-.29,19.905,19.905,0,0,0,0,28.345,20.324,20.324,0,0,0,28.606,0,18.857,18.857,0,0,0,5.906-14.158h5.791A27.044,27.044,0,0,1,48.97,49.059a26.214,26.214,0,0,1-36.828,0,25.594,25.594,0,0,1-.058-36.423,26.021,26.021,0,0,1,36.626,0l7.9-8.136ZM32,18.977V31.282L42.137,37.3l-2.085,3.5L27.661,33.453V18.977Z" transform="translate(-4.502 -4.5)" fill="#6c74eb"/>
</svg>
