<svg xmlns="http://www.w3.org/2000/svg" width="21" height="21" viewBox="0 0 21 21">
  <path id="Icon_metro-warning" data-name="Icon metro-warning" d="M13.071,3.831l8.8,17.539H4.271l8.8-17.539Zm0-1.9a1.518,1.518,0,0,0-1.249.916L2.859,20.708c-.687,1.221-.1,2.22,1.3,2.22H21.985c1.4,0,1.985-1,1.3-2.22h0L14.319,2.844a1.518,1.518,0,0,0-1.249-.916Zm1.313,17.063a1.313,1.313,0,1,1-1.313-1.313A1.313,1.313,0,0,1,14.383,18.991Zm-1.313-2.625a1.313,1.313,0,0,1-1.313-1.313V11.116a1.313,1.313,0,1,1,2.625,0v3.938A1.313,1.313,0,0,1,13.071,16.366Z" transform="translate(-2.571 -1.928)" fill="#ff562a"/>
</svg>
