<svg xmlns="http://www.w3.org/2000/svg" width="59.183" height="59.183" viewBox="0 0 59.183 59.183">
  <path id="Icon_awesome-wrench" data-name="Icon awesome-wrench" d="M58.69,12.611a1.386,1.386,0,0,0-2.326-.637l-8.6,8.6-7.846-1.307-1.307-7.846,8.6-8.6A1.39,1.39,0,0,0,46.556.49a16.565,16.565,0,0,0-19.723,21.4L2.166,46.556A7.4,7.4,0,1,0,12.627,57.017L37.273,32.371A16.59,16.59,0,0,0,58.69,12.611ZM7.4,54.559a2.774,2.774,0,1,1,2.774-2.774A2.775,2.775,0,0,1,7.4,54.559Z" transform="translate(0 0)" fill="#6c74eb"/>
</svg>
